<?xml version="1.0" encoding="UTF-8" standalone="no"?>
<!DOCTYPE svg PUBLIC "-//W3C//DTD SVG 1.1//EN" "http://www.w3.org/Graphics/SVG/1.1/DTD/svg11.dtd">
<svg width="100%" height="100%" viewBox="0 0 512 512" version="1.1" xmlns="http://www.w3.org/2000/svg" xmlns:xlink="http://www.w3.org/1999/xlink" xml:space="preserve" xmlns:serif="http://www.serif.com/" style="fill-rule:evenodd;clip-rule:evenodd;stroke-linejoin:round;stroke-miterlimit:2;">
    <g>
        <g transform="matrix(1.07876,0,0,1.07876,-11.6396,-36.5255)">
            <g transform="matrix(0.986713,0,0,0.741909,137.779,89.8393)">
                <path d="M86.58,182.293L86.58,332.067C86.58,346.671 77.665,358.527 66.685,358.527C55.705,358.527 46.79,346.671 46.79,332.067L46.79,182.293C46.79,167.69 55.705,155.834 66.685,155.834C77.665,155.834 86.58,167.69 86.58,182.293Z" style="fill:url(#_Linear1);"/>
            </g>
            <g transform="matrix(0.986713,0,0,0.741909,219.407,89.8393)">
                <path d="M86.58,182.293L86.58,332.067C86.58,346.671 77.665,358.527 66.685,358.527C55.705,358.527 46.79,346.671 46.79,332.067L46.79,182.293C46.79,167.69 55.705,155.834 66.685,155.834C77.665,155.834 86.58,167.69 86.58,182.293Z" style="fill:url(#_Linear2);"/>
            </g>
            <g transform="matrix(3.0382,0,0,0.788099,41.79,33.0214)">
                <path d="M86.58,232.53L86.58,281.83C86.58,324.16 77.665,358.527 66.685,358.527C55.705,358.527 46.79,324.16 46.79,281.83L46.79,232.53C46.79,190.2 55.705,155.834 66.685,155.834C77.665,155.834 86.58,190.2 86.58,232.53ZM73.159,231.549C73.159,217.788 70.261,206.616 66.691,206.616C63.122,206.616 60.224,217.788 60.224,231.549L60.224,282.812C60.224,296.573 63.122,307.745 66.691,307.745C70.261,307.745 73.159,296.573 73.159,282.812L73.159,231.549Z" style="fill:url(#_Linear3);"/>
            </g>
        </g>
        <g transform="matrix(1.07876,0,0,1.07876,139.461,-36.5255)">
            <g transform="matrix(0.986713,0,0,0.741909,137.779,89.8393)">
                <path d="M86.58,182.293L86.58,332.067C86.58,346.671 77.665,358.527 66.685,358.527C55.705,358.527 46.79,346.671 46.79,332.067L46.79,182.293C46.79,167.69 55.705,155.834 66.685,155.834C77.665,155.834 86.58,167.69 86.58,182.293Z" style="fill:url(#_Linear4);"/>
            </g>
            <g transform="matrix(0.986713,0,0,0.741909,219.407,89.8393)">
                <path d="M86.58,182.293L86.58,332.067C86.58,346.671 77.665,358.527 66.685,358.527C55.705,358.527 46.79,346.671 46.79,332.067L46.79,182.293C46.79,167.69 55.705,155.834 66.685,155.834C77.665,155.834 86.58,167.69 86.58,182.293Z" style="fill:url(#_Linear5);"/>
            </g>
            <g transform="matrix(3.0382,0,0,0.788099,41.79,33.0214)">
                <path d="M86.58,232.53L86.58,281.83C86.58,324.16 77.665,358.527 66.685,358.527C55.705,358.527 46.79,324.16 46.79,281.83L46.79,232.53C46.79,190.2 55.705,155.834 66.685,155.834C77.665,155.834 86.58,190.2 86.58,232.53ZM73.159,231.549C73.159,217.788 70.261,206.616 66.691,206.616C63.122,206.616 60.224,217.788 60.224,231.549L60.224,282.812C60.224,296.573 63.122,307.745 66.691,307.745C70.261,307.745 73.159,296.573 73.159,282.812L73.159,231.549Z" style="fill:url(#_Linear6);"/>
            </g>
        </g>
        <g transform="matrix(1,0,0,1,-5.55478,-20)">
            <g transform="matrix(0.752528,-0.752795,0.426242,0.426091,245.696,331.134)">
                <path d="M86.58,190.97L86.58,323.39C86.58,342.783 77.665,358.527 66.685,358.527C55.705,358.527 46.79,342.783 46.79,323.39L46.79,190.97C46.79,171.578 55.705,155.834 66.685,155.834C77.665,155.834 86.58,171.578 86.58,190.97Z" style="fill:url(#_Linear7);"/>
            </g>
            <g transform="matrix(1.03059,0,0,1.03059,7.59581,-15.7035)">
                <path d="M287.988,184.392C345.849,184.392 392.825,231.368 392.825,289.229C392.825,347.09 345.849,394.066 287.988,394.066C230.127,394.066 183.152,347.09 183.152,289.229C183.152,231.368 230.127,184.392 287.988,184.392ZM287.988,205.333C241.685,205.333 204.092,242.926 204.092,289.229C204.092,335.533 241.685,373.125 287.988,373.125C334.292,373.125 371.884,335.533 371.884,289.229C371.884,242.926 334.292,205.333 287.988,205.333Z" style="fill:url(#_Linear8);"/>
            </g>
        </g>
        <g transform="matrix(1.07876,0,0,1.07876,-6.78108,-36.5255)">
            <g transform="matrix(6.04187e-17,-0.986713,0.596413,3.65197e-17,-46.1511,241.263)">
                <path d="M86.58,188.748L86.58,325.613C86.58,343.779 77.665,358.527 66.685,358.527C55.705,358.527 46.79,343.779 46.79,325.613L46.79,188.748C46.79,170.582 55.705,155.834 66.685,155.834C77.665,155.834 86.58,170.582 86.58,188.748Z" style="fill:url(#_Linear9);"/>
            </g>
            <g transform="matrix(6.04187e-17,-0.986713,0.596413,3.65197e-17,-46.1511,402.002)">
                <path d="M86.58,188.748L86.58,325.613C86.58,343.779 77.665,358.527 66.685,358.527C55.705,358.527 46.79,343.779 46.79,325.613L46.79,188.748C46.79,170.582 55.705,155.834 66.685,155.834C77.665,155.834 86.58,170.582 86.58,188.748Z" style="fill:url(#_Linear10);"/>
            </g>
            <g transform="matrix(6.04187e-17,-0.986713,0.439369,2.69036e-17,-21.6784,321.799)">
                <path d="M86.58,200.513L86.58,313.848C86.58,338.507 77.665,358.527 66.685,358.527C55.705,358.527 46.79,338.507 46.79,313.848L46.79,200.513C46.79,175.854 55.705,155.834 66.685,155.834C77.665,155.834 86.58,175.854 86.58,200.513Z" style="fill:url(#_Linear11);"/>
            </g>
            <g transform="matrix(0.986713,0,0,0.986713,0.621708,2.07059)">
                <path d="M86.58,175.729L86.58,338.632C86.58,349.612 77.665,358.527 66.685,358.527C55.705,358.527 46.79,349.612 46.79,338.632L46.79,175.729C46.79,164.748 55.705,155.834 66.685,155.834C77.665,155.834 86.58,164.748 86.58,175.729Z" style="fill:url(#_Linear12);"/>
            </g>
        </g>
    </g>
    <defs>
        <linearGradient id="_Linear1" x1="0" y1="0" x2="1" y2="0" gradientUnits="userSpaceOnUse" gradientTransform="matrix(-10.2879,24.6852,-18.5608,-13.6825,66.6849,232.495)"><stop offset="0" style="stop-color:rgb(25,118,210);stop-opacity:1"/><stop offset="1" style="stop-color:rgb(0,69,137);stop-opacity:1"/></linearGradient>
        <linearGradient id="_Linear2" x1="0" y1="0" x2="1" y2="0" gradientUnits="userSpaceOnUse" gradientTransform="matrix(65.195,50.6364,-38.0735,86.7071,-28.1091,325.402)"><stop offset="0" style="stop-color:rgb(25,118,210);stop-opacity:1"/><stop offset="1" style="stop-color:rgb(0,69,137);stop-opacity:1"/></linearGradient>
        <linearGradient id="_Linear3" x1="0" y1="0" x2="1" y2="0" gradientUnits="userSpaceOnUse" gradientTransform="matrix(-13.4695,150.425,-39.0198,-51.9263,70.5057,175.138)"><stop offset="0" style="stop-color:rgb(25,118,210);stop-opacity:1"/><stop offset="1" style="stop-color:rgb(0,69,137);stop-opacity:1"/></linearGradient>
        <linearGradient id="_Linear4" x1="0" y1="0" x2="1" y2="0" gradientUnits="userSpaceOnUse" gradientTransform="matrix(-10.2879,24.6852,-18.5608,-13.6825,66.6849,232.495)"><stop offset="0" style="stop-color:rgb(25,118,210);stop-opacity:1"/><stop offset="1" style="stop-color:rgb(0,69,137);stop-opacity:1"/></linearGradient>
        <linearGradient id="_Linear5" x1="0" y1="0" x2="1" y2="0" gradientUnits="userSpaceOnUse" gradientTransform="matrix(65.195,50.6364,-38.0735,86.7071,-28.1091,325.402)"><stop offset="0" style="stop-color:rgb(25,118,210);stop-opacity:1"/><stop offset="1" style="stop-color:rgb(0,69,137);stop-opacity:1"/></linearGradient>
        <linearGradient id="_Linear6" x1="0" y1="0" x2="1" y2="0" gradientUnits="userSpaceOnUse" gradientTransform="matrix(-13.4695,150.425,-39.0198,-51.9263,70.5057,175.138)"><stop offset="0" style="stop-color:rgb(25,118,210);stop-opacity:1"/><stop offset="1" style="stop-color:rgb(0,69,137);stop-opacity:1"/></linearGradient>
        <linearGradient id="_Linear7" x1="0" y1="0" x2="1" y2="0" gradientUnits="userSpaceOnUse" gradientTransform="matrix(2.32491,24.3289,-13.7753,4.10607,66.2732,155.106)"><stop offset="0" style="stop-color:rgb(241,129,29);stop-opacity:1"/><stop offset="1" style="stop-color:rgb(165,78,0);stop-opacity:1"/></linearGradient>
        <linearGradient id="_Linear8" x1="0" y1="0" x2="1" y2="0" gradientUnits="userSpaceOnUse" gradientTransform="matrix(177.377,121.518,-121.518,177.377,193.148,261.153)"><stop offset="0" style="stop-color:rgb(241,129,29);stop-opacity:1"/><stop offset="1" style="stop-color:rgb(165,78,0);stop-opacity:1"/></linearGradient>
        <linearGradient id="_Linear9" x1="0" y1="0" x2="1" y2="0" gradientUnits="userSpaceOnUse" gradientTransform="matrix(12.3655,119.893,-72.4689,20.4577,54.3193,210.184)"><stop offset="0" style="stop-color:rgb(25,118,210);stop-opacity:1"/><stop offset="1" style="stop-color:rgb(0,69,137);stop-opacity:1"/></linearGradient>
        <linearGradient id="_Linear10" x1="0" y1="0" x2="1" y2="0" gradientUnits="userSpaceOnUse" gradientTransform="matrix(39.7897,-136.865,82.727,65.8285,46.79,358.527)"><stop offset="0" style="stop-color:rgb(25,118,210);stop-opacity:1"/><stop offset="1" style="stop-color:rgb(0,69,137);stop-opacity:1"/></linearGradient>
        <linearGradient id="_Linear11" x1="0" y1="0" x2="1" y2="0" gradientUnits="userSpaceOnUse" gradientTransform="matrix(-39.7897,-191.707,85.3644,-89.3577,86.5797,347.541)"><stop offset="0" style="stop-color:rgb(25,118,210);stop-opacity:1"/><stop offset="1" style="stop-color:rgb(0,69,137);stop-opacity:1"/></linearGradient>
        <linearGradient id="_Linear12" x1="0" y1="0" x2="1" y2="0" gradientUnits="userSpaceOnUse" gradientTransform="matrix(14.2325,202.693,-202.693,14.2325,72.4086,155.834)"><stop offset="0" style="stop-color:rgb(25,118,210);stop-opacity:1"/><stop offset="1" style="stop-color:rgb(0,69,137);stop-opacity:1"/></linearGradient>
    </defs>
</svg>
