<?xml version="1.0" encoding="UTF-8" standalone="no"?>
<!DOCTYPE svg PUBLIC "-//W3C//DTD SVG 1.1//EN" "http://www.w3.org/Graphics/SVG/1.1/DTD/svg11.dtd">
<svg width="100%" height="100%" viewBox="0 0 926 1024" version="1.1" xmlns="http://www.w3.org/2000/svg" xmlns:xlink="http://www.w3.org/1999/xlink" xml:space="preserve" xmlns:serif="http://www.serif.com/" style="fill-rule:evenodd;clip-rule:evenodd;stroke-linejoin:round;stroke-miterlimit:2;">
    <g transform="matrix(2,0,0,2,1563.48,-1457.23)">
        <g transform="matrix(1,0,0,1,427.413,728.614)">
            <path d="M-977.899,512C-1003.06,512 -1032.25,490.951 -1053.29,479.122C-1071.74,468.753 -1088.46,455.308 -1104.09,441.027C-1120.55,425.977 -1139.01,407.282 -1152.06,388.822C-1164.75,370.873 -1174.51,350.492 -1182.39,330.268C-1190.26,310.07 -1195.34,288.788 -1199.32,267.482C-1203.44,245.495 -1205.87,221.504 -1207.08,198.346C-1208.61,169.069 -1210.02,113.572 -1208.49,91.82C-1207.88,83.103 -1203.93,74.173 -1197.91,67.835C-1191.33,60.897 -1179.78,53.524 -1168.99,50.198C-1132.3,38.892 -1016.19,0 -977.806,0C-939.419,0 -823.309,38.892 -786.624,50.198C-775.833,53.524 -764.285,60.897 -757.7,67.835C-751.684,74.173 -747.731,83.103 -747.118,91.82C-745.59,113.572 -747.001,169.069 -748.529,198.346C-749.738,221.504 -752.174,245.495 -756.289,267.482C-760.277,288.788 -765.353,310.07 -773.221,330.268C-781.098,350.492 -790.866,370.873 -803.556,388.822C-816.607,407.282 -835.066,425.977 -851.527,441.027C-867.147,455.308 -883.871,468.753 -902.321,479.122C-920.024,489.072 -952.737,512 -977.899,512Z" style="fill:rgb(79,0,255);"/>
        </g>
        <g transform="matrix(1,0,0,1,427.413,728.614)">
            <path d="M-1111.58,434.046C-1125.94,420.393 -1140.96,404.522 -1152.06,388.822C-1164.75,370.873 -1174.51,350.492 -1182.39,330.268C-1190.26,310.07 -1195.34,288.788 -1199.32,267.482C-1203.44,245.495 -1205.87,221.504 -1207.08,198.346C-1208.61,169.069 -1210.02,113.572 -1208.49,91.82C-1207.88,83.103 -1203.93,74.173 -1197.91,67.835C-1191.33,60.897 -1179.78,53.524 -1168.99,50.198C-1132.3,38.892 -1016.19,0 -977.806,0C-974.691,0 -971.064,0.256 -967.009,0.733C-940.031,20.676 -899.898,56.7 -896.471,96.495C-891.269,156.887 -916.987,180.293 -938.948,199.364C-960.908,218.436 -1024.77,264.669 -1046.15,280.562C-1067.53,296.455 -1115.79,321.883 -1120.41,366.961C-1123.5,397.042 -1118.09,418.115 -1111.58,434.046Z" style="fill:url(#_Linear1);"/>
        </g>
        <g transform="matrix(1,0,0,1,427.413,728.614)">
            <path d="M-967.009,0.733C-921.097,6.131 -820.332,39.81 -786.624,50.198C-775.833,53.524 -764.285,60.897 -757.7,67.835C-751.684,74.173 -747.731,83.103 -747.118,91.82C-745.59,113.572 -747.001,169.069 -748.529,198.346C-749.738,221.504 -752.174,245.495 -756.289,267.482C-760.277,288.788 -765.353,310.07 -773.221,330.268C-781.098,350.492 -790.866,370.873 -803.556,388.822C-816.607,407.282 -835.066,425.977 -851.527,441.027C-867.147,455.308 -883.871,468.753 -902.321,479.122C-920.024,489.072 -952.737,512 -977.899,512C-1003.06,512 -1032.25,490.951 -1053.29,479.122C-1071.74,468.753 -1088.46,455.308 -1104.09,441.027C-1106.55,438.777 -1109.05,436.446 -1111.58,434.046C-1118.09,418.115 -1123.5,397.042 -1120.41,366.961C-1115.79,321.883 -1067.53,296.455 -1046.15,280.562C-1024.77,264.669 -960.908,218.436 -938.948,199.364C-916.987,180.293 -891.269,156.887 -896.471,96.495C-899.898,56.7 -940.031,20.676 -967.009,0.733Z" style="fill:url(#_Linear2);"/>
        </g>
        <g transform="matrix(1,0,0,1,427.413,728.614)">
            <path d="M-788.51,49.614C-787.86,49.816 -787.232,50.011 -786.624,50.198C-775.833,53.524 -764.285,60.897 -757.7,67.835C-751.684,74.173 -747.731,83.103 -747.118,91.82C-745.59,113.572 -747.001,169.069 -748.529,198.346C-749.738,221.504 -752.174,245.495 -756.289,267.482C-760.277,288.788 -765.353,310.07 -773.221,330.268C-781.098,350.492 -790.866,370.873 -803.556,388.822C-816.607,407.282 -835.066,425.977 -851.527,441.027C-867.147,455.308 -883.871,468.753 -902.321,479.122C-911.432,484.243 -924.519,492.801 -938.506,499.902C-1002.9,479.189 -1023.67,451.972 -1037.89,415.32C-1058.29,362.775 -1036.09,307.864 -1019.83,288.449C-1003.58,269.035 -964.751,238.784 -928.631,229.303C-892.511,219.821 -851.876,206.728 -813.499,183.25C-775.122,159.772 -771.362,134.452 -771.058,104.689C-770.781,77.57 -778.946,65.373 -788.51,49.614Z" style="fill:url(#_Linear3);"/>
        </g>
        <g transform="matrix(1,0,0,1,-6.78734,0)">
            <g transform="matrix(0.808901,0,0,0.799202,-749.387,758.474)">
                <path d="M43.665,322.313L43.665,148.418C43.665,136.719 53.049,127.221 64.608,127.221L152.282,127.221C163.841,127.221 173.225,136.719 173.225,148.418C173.225,160.118 163.841,169.616 152.282,169.616L85.552,169.616L85.552,214.168L117.44,214.168C128.999,214.168 138.384,223.666 138.384,235.366C138.384,247.065 128.999,256.564 117.44,256.564L85.552,256.564L85.552,301.115L152.61,301.115C164.169,301.115 173.554,310.614 173.554,322.313C173.554,334.012 164.169,343.511 152.61,343.511L64.937,343.511L64.773,343.51L64.608,343.511C53.049,343.511 43.665,334.012 43.665,322.313Z" style="fill:url(#_Linear4);"/>
            </g>
            <g transform="matrix(0.808901,0,0,0.636402,-634.54,813.399)">
                <path d="M43.665,316.89L43.665,153.841C43.665,153.834 43.665,153.827 43.665,153.821C43.683,108.596 72.575,71.886 108.16,71.886C143.745,71.886 172.637,108.596 172.655,153.821C172.655,153.827 172.655,153.834 172.655,153.841L172.655,316.89C172.655,331.583 163.271,343.511 151.712,343.511C140.153,343.511 130.768,331.583 130.768,316.89L130.768,283.016C123.731,286.368 116.113,288.202 108.16,288.202C100.207,288.202 92.589,286.368 85.552,283.016L85.552,316.89C85.552,331.583 76.167,343.511 64.608,343.511C53.049,343.511 43.665,331.583 43.665,316.89ZM129.104,151.711C129.104,137.019 119.719,125.091 108.16,125.091C96.601,125.091 87.217,137.019 87.217,151.711L87.217,208.376C87.217,223.068 96.601,234.997 108.16,234.997C119.719,234.997 129.104,223.068 129.104,208.376L129.104,151.711Z" style="fill:url(#_Linear5);"/>
            </g>
            <g transform="matrix(0.808901,0,0,0.636402,-512.806,812.517)">
                <path d="M43.665,316.89L43.665,153.841C43.665,153.834 43.665,153.827 43.665,153.821C43.683,108.596 72.575,71.886 108.16,71.886C143.745,71.886 172.637,108.596 172.655,153.821C172.655,153.827 172.655,153.834 172.655,153.841L172.655,316.89C172.655,331.583 163.271,343.511 151.712,343.511C140.153,343.511 130.768,331.583 130.768,316.89L130.768,283.016C123.731,286.368 116.113,288.202 108.16,288.202C100.207,288.202 92.589,286.368 85.552,283.016L85.552,316.89C85.552,331.583 76.167,343.511 64.608,343.511C53.049,343.511 43.665,331.583 43.665,316.89ZM129.104,151.711C129.104,137.019 119.719,125.091 108.16,125.091C96.601,125.091 87.217,137.019 87.217,151.711L87.217,208.376C87.217,223.068 96.601,234.997 108.16,234.997C119.719,234.997 129.104,223.068 129.104,208.376L129.104,151.711Z" style="fill:url(#_Linear6);"/>
            </g>
        </g>
    </g>
    <defs>
        <linearGradient id="_Linear1" x1="0" y1="0" x2="1" y2="0" gradientUnits="userSpaceOnUse" gradientTransform="matrix(-167.548,-109.176,109.176,-167.548,-1020.87,186.831)"><stop offset="0" style="stop-color:rgb(51,116,179);stop-opacity:0.96"/><stop offset="1" style="stop-color:rgb(0,30,59);stop-opacity:0.96"/></linearGradient>
        <linearGradient id="_Linear2" x1="0" y1="0" x2="1" y2="0" gradientUnits="userSpaceOnUse" gradientTransform="matrix(-419.973,-239.197,239.197,-419.973,-729.73,391.808)"><stop offset="0" style="stop-color:rgb(48,148,248);stop-opacity:1"/><stop offset="1" style="stop-color:rgb(0,30,59);stop-opacity:1"/></linearGradient>
        <linearGradient id="_Linear3" x1="0" y1="0" x2="1" y2="0" gradientUnits="userSpaceOnUse" gradientTransform="matrix(177.411,60.626,-60.626,177.411,-923.871,324.886)"><stop offset="0" style="stop-color:rgb(0,70,138);stop-opacity:0.67"/><stop offset="1" style="stop-color:rgb(140,198,255);stop-opacity:0.67"/></linearGradient>
        <linearGradient id="_Linear4" x1="0" y1="0" x2="1" y2="0" gradientUnits="userSpaceOnUse" gradientTransform="matrix(-118.426,1.17883,-1.16469,-119.863,162.091,234.187)"><stop offset="0" style="stop-color:white;stop-opacity:0.96"/><stop offset="1" style="stop-color:rgb(154,205,255);stop-opacity:0.96"/></linearGradient>
        <linearGradient id="_Linear5" x1="0" y1="0" x2="1" y2="0" gradientUnits="userSpaceOnUse" gradientTransform="matrix(-97.0499,136.249,-107.193,-123.356,153.917,181.75)"><stop offset="0" style="stop-color:white;stop-opacity:0.96"/><stop offset="1" style="stop-color:rgb(154,205,255);stop-opacity:0.96"/></linearGradient>
        <linearGradient id="_Linear6" x1="0" y1="0" x2="1" y2="0" gradientUnits="userSpaceOnUse" gradientTransform="matrix(-45.699,105.742,-83.1924,-58.0859,78.0067,182.46)"><stop offset="0" style="stop-color:white;stop-opacity:0.96"/><stop offset="1" style="stop-color:rgb(154,205,255);stop-opacity:0.96"/></linearGradient>
    </defs>
</svg>
